<?xml version="1.0" encoding="utf-8"?>
<!-- Generator: Adobe Illustrator 25.0.1, SVG Export Plug-In . SVG Version: 6.00 Build 0)  -->
<svg version="1.1" id="Layer_1" xmlns="http://www.w3.org/2000/svg" xmlns:xlink="http://www.w3.org/1999/xlink" x="0px" y="0px"
	 viewBox="0 0 115.6 121.2" style="enable-background:new 0 0 115.6 121.2;" xml:space="preserve">
<style type="text/css">
	.st0{fill:#BAE0C7;}
</style>
<g>
	<g>
		<path class="st0" d="M17.6,32.3L7.5,22.1l3.3-3.2l3.4,3.5l3.1-3l-3.4-3.5l3.3-3.2l10.1,10.3L24,26.1l-3.9-4l-3.1,3l3.9,4
			L17.6,32.3z M20.2,29.1l-3.9-4l3.8-3.7l3.9,4l2.6-2.5l-9.4-9.6l-2.6,2.5l3.4,3.5L14.2,23l-3.4-3.5l-2.6,2.5l9.4,9.6L20.2,29.1z"/>
		<path class="st0" d="M37.6,17.6l-1.7-5l-8-6.8L32.8,4l3.5,3.5c0.1,0.1,0.2,0.2,0.2,0.3c0.1,0.1,0.2,0.2,0.3,0.4c0-0.2,0-0.4,0-0.6
			c0-0.2,0-0.3,0-0.3l0.7-4.9l4.7-1.6L40.3,11l1.7,5L37.6,17.6z M41.4,15.8l-1.6-4.7l1.8-9.6l-3.6,1.3l-0.9,6.1l-4.5-4.3l-3.7,1.3
			l7.4,6.4L38,17L41.4,15.8z"/>
		<path class="st0" d="M51.9,13.8L58.4,0L63,0.4l3.7,14.8l-4.6-0.4l-0.4-1.9l-4.6-0.4l-0.7,1.8L51.9,13.8z M52.6,13.4l3.6,0.3
			l0.7-1.8l5.2,0.5l0.4,1.9l3.6,0.3L62.6,0.9l-4-0.4L52.6,13.4z M57.7,9.9l2.7-6.8l1.4,7.2L57.7,9.9z M58.3,9.5l2.9,0.3l-0.8-4.1
			c-0.1-0.3-0.1-0.6-0.1-0.8s0-0.4,0-0.7c0,0.2-0.1,0.4-0.2,0.7c-0.1,0.2-0.1,0.5-0.2,0.7L58.3,9.5z"/>
		<path class="st0" d="M72.9,17.4l7.4-12.3L84,7.4l0,7.8c0,0,0,0.1,0,0.1c0,0.6,0,1.2-0.1,1.7c0.1-0.2,0.2-0.5,0.3-0.7
			s0.2-0.4,0.4-0.6l3.5-5.8l3.8,2.3l-7.4,12.3l-3.8-2.3l0-7.8c0-0.2,0-0.5,0-0.9c0-0.3,0.1-0.7,0.1-1.1c-0.1,0.3-0.2,0.6-0.4,0.9
			c-0.1,0.3-0.2,0.5-0.3,0.7l-3.5,5.8L72.9,17.4z M88.3,10.5l-4.7,7.8l0-10.7l-3.1-1.9l-6.9,11.5l2.9,1.7l4.7-7.8l0,10.7l3.1,1.9
			l6.9-11.5L88.3,10.5z"/>
		<path class="st0" d="M95.9,39l1-0.9c-0.8-0.1-1.5-0.4-2.1-0.8c-0.6-0.5-1.2-1.1-1.8-2c-1.1-1.7-1.4-3.5-0.9-5.2
			c0.5-1.7,1.7-3.2,3.7-4.5c2-1.3,3.9-1.7,5.8-1.3c1.8,0.4,3.4,1.6,4.6,3.5c1,1.6,1.5,3.2,1.3,4.6s-0.9,2.8-2.2,3.9l-2.4-3.7
			c0.4-0.5,0.6-0.9,0.6-1.4s-0.1-1-0.4-1.5c-0.5-0.8-1.2-1.2-2-1.2c-0.8,0-1.9,0.4-3,1.1c-1.1,0.7-1.8,1.4-2.1,2.2s-0.2,1.5,0.3,2.3
			c0.4,0.6,0.8,1,1.3,1.2c0.5,0.2,1,0.2,1.5,0.1l-1.1-1.8l2.6-1.7l3.4,5.3l-6.6,4.2L95.9,39z M103.5,32.6l1.9,2.9
			c1-1,1.6-2.1,1.7-3.4s-0.3-2.7-1.2-4c-1.2-1.8-2.6-2.9-4.4-3.3c-1.7-0.4-3.5,0.1-5.4,1.3c-1.8,1.2-3,2.6-3.5,4.2
			c-0.5,1.6-0.2,3.2,0.8,4.9c0.6,1,1.3,1.7,2.1,2.1c0.8,0.5,1.6,0.6,2.4,0.5L96.5,39l1.1,1.8l5.9-3.8l-2.9-4.5l-1.8,1.2l1.1,1.8
			c-0.7,0.4-1.4,0.5-2.1,0.3c-0.7-0.2-1.3-0.7-1.8-1.4c-0.6-0.9-0.7-1.9-0.4-2.7c0.3-0.9,1.1-1.7,2.4-2.5c1.2-0.8,2.3-1.1,3.3-1.1
			c1,0.1,1.7,0.5,2.3,1.4c0.3,0.5,0.5,1.1,0.5,1.6C104.1,31.6,103.9,32.1,103.5,32.6z"/>
		<path class="st0" d="M105.9,47.2l0.6,4l-1.3,0.2c-0.6,0.1-1,0.2-1.2,0.4s-0.3,0.5-0.2,1c0.1,0.4,0.2,0.7,0.5,0.9
			c0.3,0.1,0.8,0.2,1.6,0.1l9.1-1.3l0.7,4.6l-9.6,1.4c-1.7,0.2-3-0.1-4-0.9c-1-0.8-1.6-2.2-1.9-4c-0.3-1.9,0-3.3,0.8-4.3
			s2.2-1.6,4.2-1.9L105.9,47.2z M104.7,51l1.2-0.2l-0.4-3l-0.6,0.1c-1.7,0.2-2.9,0.8-3.6,1.8s-0.9,2.2-0.7,3.9
			c0.2,1.7,0.8,2.9,1.8,3.6c0.9,0.7,2.3,0.9,3.9,0.7l8.7-1.2l-0.5-3.6l-9,1.3c-0.7,0.1-1.3,0-1.6-0.2c-0.4-0.2-0.6-0.7-0.7-1.3
			c-0.1-0.5,0-0.9,0.3-1.2S104.2,51,104.7,51z"/>
		<path class="st0" d="M100.6,67.2l14.1,2.8l-0.9,4.6l-14.1-2.8L100.6,67.2z M100.3,71.4l13.2,2.6l0.7-3.6L101,67.8L100.3,71.4z"/>
		<path class="st0" d="M97.4,79.7l12.1,7.8l-2.4,3.7L99.4,91c0,0-0.1,0-0.1,0c-0.6,0-1.2-0.1-1.7-0.1c0.2,0.1,0.5,0.2,0.7,0.3
			s0.4,0.2,0.6,0.4l5.7,3.7l-2.4,3.7l-12.1-7.8l2.4-3.7l7.8,0.2c0.2,0,0.5,0,0.9,0.1c0.3,0,0.7,0.1,1.1,0.1
			c-0.3-0.1-0.6-0.3-0.9-0.4c-0.3-0.1-0.5-0.2-0.6-0.4l-5.7-3.6L97.4,79.7z M103.9,95.4l-7.7-4.9l10.7,0.3l2-3.1l-11.3-7.3l-1.8,2.9
			l7.7,4.9l-10.6-0.3l-2,3.1l11.3,7.3L103.9,95.4z"/>
		<path class="st0" d="M88.4,101.2l-3.4,2.2l-0.7-1.1c-0.3-0.5-0.6-0.8-0.9-0.9s-0.6,0-1,0.2c-0.4,0.2-0.6,0.5-0.6,0.8
			c0,0.3,0.2,0.8,0.6,1.4l5,7.7l-3.9,2.5l-5.3-8.1c-0.9-1.4-1.2-2.7-0.9-4s1.3-2.4,2.8-3.4c1.6-1,3-1.4,4.2-1.1
			c1.2,0.3,2.4,1.3,3.5,3L88.4,101.2z M84.4,101.8l0.7,1.1l2.6-1.7l-0.3-0.5c-1-1.5-2-2.3-3.1-2.6s-2.4,0.1-3.8,1
			c-1.4,0.9-2.3,2-2.5,3.1c-0.2,1.2,0.1,2.4,1,3.9l4.8,7.4l3-2l-4.9-7.6c-0.4-0.6-0.6-1.1-0.5-1.5c0.1-0.4,0.4-0.8,0.9-1.1
			c0.4-0.3,0.8-0.4,1.2-0.3C83.8,101,84.2,101.3,84.4,101.8z"/>
		<path class="st0" d="M68.3,105.1l2.5,14.2l-11.3,2l-0.6-3.4l6.8-1.2l-0.3-1.9l-5.7,1l-0.6-3.3l5.7-1l-0.4-2.2l-7.1,1.2l-0.6-3.4
			L68.3,105.1z M57.3,107.5l0.4,2.5l7.1-1.2l0.5,3.1l-5.7,1l0.4,2.3l5.7-1l0.5,2.8l-6.8,1.2l0.4,2.5l10.4-1.8l-2.3-13.2L57.3,107.5z
			"/>
		<path class="st0" d="M48,114c-0.6,2.3-1.7,3.9-3.4,4.8c-1.6,1-3.6,1.1-5.8,0.5c-2.2-0.6-3.8-1.7-4.7-3.4c-0.9-1.7-1.1-3.6-0.5-5.9
			c0.6-2.3,1.7-3.9,3.4-4.8c1.6-1,3.6-1.1,5.8-0.5c2.2,0.6,3.8,1.7,4.7,3.4C48.5,109.8,48.7,111.8,48,114z M47.6,113.9
			c0.6-2.1,0.4-3.9-0.4-5.5s-2.3-2.6-4.4-3.2c-2.1-0.6-3.9-0.4-5.4,0.5c-1.5,0.9-2.6,2.4-3.2,4.5c-0.6,2.1-0.4,4,0.4,5.5
			c0.9,1.6,2.3,2.6,4.4,3.2c2.1,0.6,3.9,0.4,5.4-0.5S47,116,47.6,113.9z M44,112.9c-0.4,1.5-1,2.5-1.7,3s-1.6,0.7-2.7,0.4
			c-1.1-0.3-1.8-0.9-2.1-1.7c-0.3-0.8-0.3-2,0.1-3.5c0.4-1.5,0.9-2.5,1.6-3c0.7-0.5,1.6-0.7,2.7-0.4c1.1,0.3,1.8,0.9,2.2,1.7
			S44.4,111.5,44,112.9z M43.6,112.8c0.4-1.3,0.4-2.3,0.1-3.1c-0.3-0.7-0.9-1.2-1.8-1.5c-0.9-0.3-1.7-0.1-2.3,0.4
			c-0.6,0.5-1.1,1.4-1.4,2.7c-0.4,1.3-0.4,2.4-0.1,3.1c0.3,0.7,0.9,1.2,1.8,1.5c0.9,0.3,1.7,0.1,2.3-0.4
			C42.7,115,43.2,114.1,43.6,112.8z"/>
		<path class="st0" d="M29.2,99.6l-9.6,10.7l-3.3-2.9l1.4-7.7c0,0,0-0.1,0-0.1c0.1-0.6,0.3-1.2,0.4-1.7c-0.1,0.2-0.3,0.4-0.4,0.6
			c-0.2,0.2-0.3,0.4-0.5,0.6l-4.5,5.1l-3.3-2.9l9.6-10.7l3.3,2.9l-1.4,7.6c0,0.2-0.1,0.5-0.2,0.9c-0.1,0.3-0.2,0.7-0.3,1.1
			c0.2-0.3,0.4-0.6,0.5-0.8c0.2-0.2,0.3-0.4,0.5-0.6l4.5-5L29.2,99.6z M12.7,103.5l6.1-6.8l-2,10.5l2.7,2.4l8.9-10L26,97.3l-6.1,6.8
			l2-10.5l-2.7-2.4l-8.9,10L12.7,103.5z"/>
	</g>
	<g>
		<path class="st0" d="M0,61c0-2.3,0.7-4.2,2-5.5s3.2-2,5.5-2c2.3,0,4.1,0.7,5.5,2s2,3.2,2,5.5c0,2.3-0.7,4.2-2,5.5s-3.2,2-5.5,2
			c-2.3,0-4.1-0.7-5.5-2S0,63.4,0,61z M0.5,61c0,2.2,0.6,3.9,1.9,5.2s2.9,1.9,5.1,1.9c2.1,0,3.8-0.6,5.1-1.9s1.9-3,1.9-5.2
			c0-2.2-0.6-3.9-1.9-5.2s-3-1.9-5.1-1.9s-3.8,0.6-5.1,1.9S0.5,58.8,0.5,61z M4.2,61c0-1.5,0.3-2.6,0.8-3.4s1.4-1.1,2.5-1.1
			c1.1,0,2,0.4,2.5,1.1s0.8,1.8,0.8,3.4s-0.3,2.6-0.8,3.4s-1.4,1.1-2.5,1.1c-1.1,0-2-0.4-2.5-1.1S4.2,62.6,4.2,61z M4.7,61
			c0,1.4,0.2,2.4,0.7,3s1.2,1,2.1,1c1,0,1.7-0.3,2.1-1s0.7-1.6,0.7-3c0-1.4-0.2-2.4-0.7-3s-1.2-1-2.1-1c-1,0-1.7,0.3-2.1,1
			S4.7,59.7,4.7,61z"/>
		<path class="st0" d="M17.1,68.2V53.8h4.6v10.6h6.3v3.8H17.1z M27.5,67.8v-2.9h-6.3V54.3h-3.6v13.4H27.5z"/>
		<path class="st0" d="M29.9,68.2V53.8h4.7v14.4H29.9z M34.1,67.8V54.3h-3.7v13.4H34.1z"/>
		<path class="st0" d="M36.2,53.8H41l2.2,8.4c0,0.2,0.1,0.4,0.1,0.6s0.1,0.5,0.1,0.9c0-0.3,0.1-0.5,0.1-0.8s0.1-0.5,0.2-0.8l2.3-8.4
			h4.5l-4.8,14.4h-4.6L36.2,53.8z M41.5,67.8h3.9l4.6-13.4h-3.6l-3,10.7l-2.8-10.7h-3.7L41.5,67.8z"/>
		<path class="st0" d="M52.2,68.2V53.8h4.7v14.4H52.2z M56.4,67.8V54.3h-3.7v13.4H56.4z"/>
		<path class="st0" d="M58.3,68.2l5.1-14.4H68l5.1,14.4h-4.6l-0.5-1.9h-4.6l-0.6,1.9H58.3z M58.9,67.8h3.6l0.5-1.9h5.2l0.6,1.9h3.6
			l-4.7-13.4h-4L58.9,67.8z M63.7,63.7l2-7l2,7H63.7z M64.2,63.3h2.9l-1.2-4c-0.1-0.3-0.1-0.6-0.2-0.8s-0.1-0.4-0.1-0.6
			c0,0.2-0.1,0.5-0.1,0.7s-0.1,0.5-0.2,0.7L64.2,63.3z"/>
	</g>
</g>
</svg>
